#!OML:ASF E:\Mandelcareful walks\Project 1\Capture day 1\Session 1\Subject1.ASF
:FULLY-SPECIFIED
:DEGREES
615
root 5.5761 16.8743 -1.34446 -76.4289 -85.2179 77.5428
lowerback -0.076572 0.282689 -6.69525
upperback 3.1494 0.467022 -0.252935
thorax 3.25361 0.0325998 3.50293
lowerneck -20.0258 0.960918 -2.72741
upperneck 32.1792 2.07666 -0.895179
head 14.4082 0.175702 0.418042
rclavicle 3.32964e-015 -1.80894e-014
rhumerus -27.2096 -6.45678 -82.4464
rradius 27.3395
rwrist -7.0113
rhand -8.55676 -31.2727
rfingers 7.12502
rthumb 17.3731 -60.5163
lclavicle 3.32964e-015 -1.80894e-014
lhumerus -26.8856 3.69475 89.2597
lradius 23.0344
lwrist 4.4091
lhand -19.8491 -12.603
lfingers 7.12502
lthumb 6.4855 17.2777
rfemur -2.34128 -7.78473 10.3419
rtibia 18.3691
rfoot -15.3844 -17.9972
rtoes 1.24167
lfemur -5.31317 0.0914211 -17.4545
ltibia 22.4186
lfoot -16.3215 13.0453
ltoes -0.0422546
616
root 5.57239 16.8743 -1.39639 -74.5057 -85.0342 75.5638
lowerback -0.333708 0.28258 -6.83755
upperback 3.39928 0.497058 -0.290264
thorax 3.65733 0.0224398 3.547
lowerneck -20.1225 1.16803 -2.29411
upperneck 32.088 2.33536 -1.17549
head 14.3967 0.305223 0.277097
rclavicle 2.01269e-015 2.08724e-014
rhumerus -26.9355 -6.7555 -82.4678
rradius 27.3698
rwrist -6.70982
rhand -8.48664 -31.6841
rfingers 7.12502
rthumb 17.4405 -60.9217
lclavicle 2.01269e-015 2.08724e-014
lhumerus -26.5831 3.71052 89.2446
lradius 22.9986
lwrist 4.38572
lhand -19.8416 -13.1598
lfingers 7.12502
lthumb 6.49276 16.7207
rfemur -2.24824 -7.98914 10.3583
rtibia 18.4455
rfoot -15.5653 -17.9243
rtoes 1.4858
lfemur -5.08238 -0.254955 -17.4205
ltibia 22.0422
lfoot -16.1941 13.1189
ltoes 0.113141
617
root 5.57545 16.879 -1.44565 -71.3727 -84.9673 72.487
lowerback -0.565143 0.258952 -6.7965
upperback 3.53243 0.487026 -0.277898
thorax 3.92911 0.00555656 3.53839
lowerneck -20.1365 1.27417 -2.14695
upperneck 32.0514 2.42939 -1.13667
head 14.3833 0.372518 0.285168
rclavicle 7.82715e-015 1.07344e-014
rhumerus -26.8773 -6.8454 -82.4664
rradius 27.4769
rwrist -6.66126
rhand -8.56327 -31.4205
rfingers 7.12502
rthumb 17.3668 -60.6647
lclavicle 7.82715e-015 1.07344e-014
lhumerus -26.4489 3.72339 89.2598
lradius 23.0915
lwrist 4.49374
lhand -19.7175 -13.4325
lfingers 7.12502
lthumb 6.61258 16.4443
rfemur -2.31862 -8.22835 10.5538
rtibia 18.5265
rfoot -15.6593 -17.9726
rtoes 1.4746
lfemur -4.96093 -0.575767 -17.2466
ltibia 21.5651
lfoot -15.8568 13.2245
ltoes -0.0398805
618
root 5.57752 16.8824 -1.49061 -69.4067 -84.7394 70.6149
lowerback -0.532338 0.236907 -6.89396
upperback 3.429 0.455486 -0.288695
thorax 3.80601 -0.00555109 3.58024
lowerneck -20.0315 1.32677 -2.24055
upperneck 32.1684 2.4847 -1.00321
head 14.4077 0.399169 0.364232
rclavicle 9.44227e-016 -3.00165e-014
rhumerus -27.0779 -6.70849 -82.4135
rradius 27.4737
rwrist -6.82979
rhand -8.4686 -31.4089
rfingers 7.12502
rthumb 17.4579 -60.645
lclavicle 9.44227e-016 -3.00165e-014
lhumerus -26.681 3.88234 89.2715
lradius 23.3648
lwrist 4.34898
lhand -19.4183 -12.8278
lfingers 7.12502
lthumb 6.90138 17.0397
rfemur -2.38176 -8.43613 10.532
rtibia 18.4711
rfoot -15.6408 -18.0573
rtoes 1.3694
lfemur -4.86346 -0.925973 -17.3106
ltibia 21.1338
lfoot -15.5399 13.4623
ltoes -0.528578
619
root 5.58374 16.8875 -1.53944 -68.0329 -84.7636 69.4122
lowerback -0.467237 0.248582 -6.81911
upperback 3.30175 0.46091 -0.268117
thorax 3.63506 0.00927259 3.5593
lowerneck -20.1165 1.34897 -2.12742
upperneck 32.2526 2.51699 -1.10816
head 14.4682 0.408981 0.308247
rclavicle -2.41026e-015 1.96797e-014
rhumerus -27.0768 -6.68547 -82.4145
rradius 27.2462
rwrist -6.81925
rhand -8.08051 -31.7887
rfingers 7.12502
rthumb 17.8314 -60.9912
lclavicle -2.41026e-015 1.96797e-014
lhumerus -26.6977 3.96929 89.2257
lradius 23.4018
lwrist 4.25885
lhand -19.2211 -12.4441
lfingers 7.12502
lthumb 7.09176 17.4171
rfemur -2.50431 -8.34295 10.8455
rtibia 18.2609
rfoot -15.6144 -18.3018
rtoes 1.30548
lfemur -4.94784 -1.2009 -17.0771
ltibia 20.8128
lfoot -15.3303 13.7062
ltoes -0.697519
620
root 5.58514 16.8963 -1.59026 -64.2222 -85.1233 65.7978
lowerback -0.731124 0.310151 -6.33395
upperback 3.31878 0.551304 -0.137677
thorax 3.79154 0.0629789 3.42828
lowerneck -19.8849 1.36658 -2.14793
upperneck 31.9473 2.52066 -1.02645
head 14.2776 0.433411 0.345193
rclavicle 9.46712e-015 -9.54166e-015
rhumerus -26.9531 -7.14162 -82.253
rradius 27.1039
rwrist -6.58929
rhand -8.07846 -31.4086
rfingers 7.12502
rthumb 17.8333 -60.6109
lclavicle 9.46712e-015 -9.54166e-015
lhumerus -26.4941 3.77932 89.3241
lradius 23.2776
lwrist 4.26518
lhand -19.1254 -12.6568
lfingers 7.12502
lthumb 7.18409 17.2013
rfemur -2.61774 -8.31026 11.6154
rtibia 18.0436
rfoot -15.629 -18.4899
rtoes 1.54483
lfemur -5.06713 -1.38685 -16.3746
ltibia 20.5128
lfoot -15.1591 13.7868
ltoes -0.754466
621
root 5.57887 16.9027 -1.63545 -60.0019 -85.2738 61.6143
lowerback -1.02082 0.264439 -6.04528
upperback 3.4183 0.50347 -0.014931
thorax 4.0644 0.0359694 3.39472
lowerneck -19.8522 1.36308 -2.24021
upperneck 31.8643 2.51143 -0.912039
head 14.2297 0.43874 0.406
rclavicle -1.49089e-015 -1.98785e-015
rhumerus -26.8819 -7.37988 -82.1656
rradius 27.1048
rwrist -6.40659
rhand -8.27749 -30.8945
rfingers 7.12502
rthumb 17.6418 -60.1141
lclavicle -1.49089e-015 -1.98785e-015
lhumerus -26.4663 3.83292 89.3749
lradius 23.3844
lwrist 4.31502
lhand -19.0138 -12.6936
lfingers 7.12502
lthumb 7.2918 17.1607
rfemur -2.48963 -8.52669 12.1124
rtibia 17.871
rfoot -15.6844 -18.484
rtoes 1.83646
lfemur -4.91579 -1.69768 -15.913
ltibia 20.1802
lfoot -15.008 13.9318
ltoes -1.06952
622
root 5.57664 16.9035 -1.67628 -57.8809 -85.0084 59.4693
lowerback -0.966723 0.177201 -6.17482
upperback 3.39996 0.386279 -0.0072463
thorax 4.027 -0.0251351 3.46993
lowerneck -19.7852 1.37222 -2.25994
upperneck 31.8644 2.53495 -0.933722
head 14.215 0.442929 0.404078
rclavicle 5.93869e-015 -7.15625e-015
rhumerus -26.9339 -7.13951 -82.1831
rradius 27.0324
rwrist -6.54491
rhand -8.50259 -30.4717
rfingers 7.12502
rthumb 17.4252 -59.7107
lclavicle 5.93869e-015 -7.15625e-015
lhumerus -26.6567 3.99119 89.3833
lradius 23.551
lwrist 4.25994
lhand -19.1062 -12.8096
lfingers 7.12502
lthumb 7.20262 17.0478
rfemur -2.21866 -8.84604 12.0836
rtibia 17.6361
rfoot -15.7344 -18.4659
rtoes 2.12285
lfemur -4.79152 -2.16587 -15.9608
ltibia 19.9625
lfoot -14.9393 14.1852
ltoes -1.26232
623
root 5.56235 16.9003 -1.71519 -57.5633 -84.4692 59.0697
lowerback -0.812397 0.143869 -6.53018
upperback 3.38294 0.342133 -0.124463
thorax 3.92787 -0.0538054 3.54455
lowerneck -19.895 1.32069 -2.22536
upperneck 31.9581 2.47211 -0.991338
head 14.2834 0.408949 0.364521
rclavicle 5.29264e-015 6.95746e-015
rhumerus -27.0195 -7.0329 -82.1794
rradius 26.9939
rwrist -6.71356
rhand -8.61557 -30.4012
rfingers 7.12502
rthumb 17.3165 -59.6497
lclavicle 5.29264e-015 6.95746e-015
lhumerus -26.802 3.82189 89.4623
lradius 23.5802
lwrist 4.30201
lhand -19.4246 -13.0139
lfingers 7.12502
lthumb 6.89533 16.8538
rfemur -1.97142 -9.42928 11.6302
rtibia 17.6351
rfoot -15.8 -18.1893
rtoes 2.04115
lfemur -4.4835 -2.51957 -16.358
ltibia 19.5697
lfoot -14.82 14.3361
ltoes -1.66005
624
root 5.58605 16.912 -1.77061 -54.6781 -85.0121 56.5016
lowerback -0.554277 0.222031 -6.04335
upperback 3.00073 0.404363 0.0592609
thorax 3.37376 0.0188793 3.46249
lowerneck -19.5277 1.32259 -2.21307
upperneck 32.0173 2.43543 -0.971443
head 14.2282 0.393433 0.360047
rclavicle 2.18663e-015 -2.98177e-015
rhumerus -27.4891 -7.1702 -82.0949
rradius 27.1758
rwrist -6.43232
rhand -8.60553 -30.6139
rfingers 7.12502
rthumb 17.3261 -59.8616
lclavicle 2.18663e-015 -2.98177e-015
lhumerus -27.2007 3.50384 89.5291
lradius 23.6521
lwrist 4.71706
lhand -19.6931 -12.892
lfingers 7.12502
lthumb 6.63609 16.984
rfemur -2.59377 -8.72015 12.6978
rtibia 17.7495
rfoot -15.8839 -18.8136
rtoes 2.33846
lfemur -4.75469 -2.66606 -15.4799
ltibia 19.1346
lfoot -14.5123 14.6652
ltoes -1.92324
625
root 5.57442 16.9106 -1.80382 -55.9984 -84.3181 57.7894
lowerback -0.63311 0.14183 -6.59575
upperback 3.02702 0.319303 -0.0916191
thorax 3.45686 -0.040978 3.61338
lowerneck -19.4058 1.3228 -2.38166
upperneck 31.976 2.44163 -0.83262
head 14.1776 0.396682 0.445374
rclavicle -1.39149e-015 -1.78906e-014
rhumerus -27.5979 -7.25396 -81.9805
rradius 27.3379
rwrist -6.122
rhand -8.57377 -30.5341
rfingers 7.12502
rthumb 17.3567 -59.7792
lclavicle -1.39149e-015 -1.78906e-014
lhumerus -27.2198 3.48273 89.5692
lradius 23.7019
lwrist 5.00002
lhand -19.4608 -12.8191
lfingers 7.12502
lthumb 6.86038 17.0497
rfemur -2.47114 -9.48132 11.9855
rtibia 17.8523
rfoot -15.9081 -18.3157
rtoes 2.19431
lfemur -4.48883 -3.11544 -16.1167
ltibia 18.7438
lfoot -14.4133 14.8688
ltoes -2.12551
626
root 5.56921 16.9082 -1.83839 -54.4662 -84.1193 56.3093
lowerback -0.814498 0.119926 -6.56447
upperback 3.09911 0.306221 -0.119556
thorax 3.63641 -0.054021 3.56726
lowerneck -19.4065 1.21097 -2.55277
upperneck 31.8841 2.27762 -0.644459
head 14.1327 0.337016 0.522622
rclavicle 1.14301e-015 1.5704e-014
rhumerus -27.4799 -7.38648 -81.9287
rradius 27.2923
rwrist -6.01499
rhand -8.62968 -30.5063
rfingers 7.12502
rthumb 17.3029 -59.7561
lclavicle 1.14301e-015 1.5704e-014
lhumerus -27.1252 3.30353 89.6446
lradius 23.7409
lwrist 5.27487
lhand -19.2058 -12.979
lfingers 7.12502
lthumb 7.10652 16.8817
rfemur -2.44729 -9.82005 11.987
rtibia 17.8661
rfoot -16.0261 -18.1564
rtoes 2.36846
lfemur -4.44854 -3.41513 -16.0947
ltibia 18.5185
lfoot -14.3399 14.9781
ltoes -2.30083
627
root 5.57049 16.905 -1.87891 -52.5539 -84.2878 54.4807
lowerback -0.965212 0.140163 -6.29274
upperback 3.12421 0.337117 -0.0482001
thorax 3.74365 -0.0351071 3.49103
lowerneck -19.4353 1.09489 -2.53285
upperneck 31.8752 2.11137 -0.672239
head 14.138 0.264946 0.479226
rclavicle -3.926e-015 3.57812e-015
rhumerus -27.3852 -7.48125 -81.9167
rradius 27.172
rwrist -5.90563
rhand -8.85478 -30.308
rfingers 7.12502
rthumb 17.0862 -59.5767
lclavicle -3.926e-015 3.57812e-015
lhumerus -27.1244 3.30373 89.6565
lradius 23.7658
lwrist 5.12711
lhand -19.346 -12.7326
lfingers 7.12502
lthumb 6.97115 17.1327
rfemur -2.53863 -9.60199 12.4609
rtibia 17.8838
rfoot -16.3404 -18.2773
rtoes 3.06446
lfemur -4.42398 -3.51395 -15.677
ltibia 18.2951
lfoot -14.3046 15.0725
ltoes -2.17208
628
root 5.575 16.9063 -1.92092 -51.0469 -84.3682 53.0031
lowerback -1.10168 0.104782 -6.199
upperback 3.22669 0.29714 0.0471353
thorax 3.93197 -0.0621641 3.53677
lowerneck -19.5462 1.04764 -2.46883
upperneck 31.8281 2.07578 -0.810281
head 14.1457 0.240143 0.407299
rclavicle -1.88845e-015 -7.95139e-016
rhumerus -27.1202 -7.32191 -81.9368
rradius 27.0683
rwrist -6.06141
rhand -8.98211 -30.2001
rfingers 7.12502
rthumb 16.9637 -59.4793
lclavicle -1.88845e-015 -7.95139e-016
lhumerus -26.9856 3.58801 89.6333
lradius 23.771
lwrist 4.72249
lhand -19.5432 -12.2351
lfingers 7.12502
lthumb 6.78076 17.6364
rfemur -2.51183 -9.3304 12.8508
rtibia 17.7516
rfoot -16.5067 -18.5185
rtoes 3.63235
lfemur -4.43429 -3.75228 -15.3601
ltibia 18.2661
lfoot -14.4479 15.2299
ltoes -1.96489
